<?xml version="1.0"?>
<svg xmlns="http://www.w3.org/2000/svg" xmlns:xlink="http://www.w3.org/1999/xlink" version="1.1" id="Layer_1" x="0px" y="0px" viewBox="0 0 511.995 511.995" style="enable-background:new 0 0 511.995 511.995;" xml:space="preserve" width="512px" height="512px"><g><g>
	<g>
		<g>
			<path d="M508.87,259.126l-85.333-85.333c-2-2-4.708-3.125-7.542-3.125h-74.667v-32c0-5.896-4.771-10.667-10.667-10.667h-224     V74.668c0-4.771-3.167-8.969-7.771-10.26c-4.625-1.323-9.479,0.604-11.979,4.667L1.578,207.741     c-2.021,3.292-2.104,7.427-0.229,10.802c1.896,3.365,5.458,5.458,9.313,5.458h53.333v85.333c0,4.771,3.167,8.969,7.771,10.26     c0.958,0.271,1.938,0.406,2.896,0.406c3.646,0,7.104-1.865,9.083-5.073l1.583-2.573v50.313c0,23.531,19.146,42.667,42.667,42.667     h1.078c4.956,24.314,26.492,42.667,52.255,42.667c25.763,0,47.299-18.353,52.255-42.667h130.156     c4.956,24.314,26.492,42.667,52.255,42.667c25.763,0,47.299-18.353,52.255-42.667h33.078c5.896,0,10.667-4.771,10.667-10.667     v-128C511.995,263.834,510.87,261.126,508.87,259.126z M85.328,271.647v-58.312c0-5.896-4.771-10.667-10.667-10.667H29.745     l55.583-90.312v58.312c0,5.896,4.771,10.667,10.667,10.667h44.917L85.328,271.647z M181.328,426.668c-17.646,0-32-14.354-32-32     s14.354-32,32-32c17.646,0,32,14.354,32,32S198.974,426.668,181.328,426.668z M319.995,384.001h-86.411     c-4.956-24.314-26.492-42.667-52.255-42.667c-25.763,0-47.299,18.353-52.255,42.667h-1.078c-11.771,0-21.333-9.573-21.333-21.333     v-84.979l62.417-101.427c2.021-3.292,2.104-7.427,0.229-10.802c-1.896-3.365-5.458-5.458-9.313-5.458h-53.333v-10.667h213.333     V384.001z M415.995,426.668c-17.646,0-32-14.354-32-32s14.354-32,32-32c17.646,0,32,14.354,32,32S433.64,426.668,415.995,426.668     z M490.661,384.001H468.25c-4.956-24.314-26.492-42.667-52.255-42.667c-25.763,0-47.299,18.353-52.255,42.667h-22.411v-192h70.25     l79.083,79.083V384.001z" data-original="#000000" class="active-path" data-old_color="#8A8282" fill="#CE6F6F"/>
			<path d="M383.995,224.001c0-5.896-4.771-10.667-10.667-10.667s-10.667,4.771-10.667,10.667v64     c0,5.896,4.771,10.667,10.667,10.667h85.333c5.896,0,10.667-4.771,10.667-10.667c0-5.896-4.771-10.667-10.667-10.667h-74.667     V224.001z" data-original="#000000" class="active-path" data-old_color="#8A8282" fill="#CE6F6F"/>
		</g>
	</g>
</g></g> </svg>
