<?xml version="1.0"?>
<svg xmlns="http://www.w3.org/2000/svg" xmlns:xlink="http://www.w3.org/1999/xlink" version="1.1" id="Capa_1" x="0px" y="0px" viewBox="0 0 407.2 407.2" style="enable-background:new 0 0 407.2 407.2;" xml:space="preserve" width="512px" height="512px" class=""><g><g>
	<g>
		<path d="M389.6,160h-16.8v-26.4c0-15.2-10.4-28-26.4-35.2v-44c2.4-2.4,4.8-5.6,4.8-9.6v-32c0-7.2-6.4-12.8-14.4-12.8H308    c-8,0-14.4,5.6-14.4,12.8v32c0,4,1.6,7.2,4.8,9.6v44c-16,7.2-26.4,20-26.4,35.2V160h-21.6v-26.4c0-15.2-10.4-28-26.4-35.2v-44    c2.4-2.4,4.8-5.6,4.8-9.6v-32c0-7.2-6.4-12.8-14.4-12.8h-29.6c-8,0-14.4,5.6-14.4,12.8v32c0,4,1.6,7.2,4.8,9.6v44    c-16,7.2-26.4,20-26.4,35.2V160h-21.6v-26.4c0-15.2-10.4-28-26.4-35.2v-44c2.4-2.4,4.8-5.6,4.8-9.6v-32C105.6,5.6,99.2,0,91.2,0    H61.6c-8,0-14.4,5.6-14.4,12.8v32c0,4,1.6,7.2,4.8,9.6v44c-16,7.2-26.4,20-26.4,35.2V160h-8c-8.8,0-16.8,8-16.8,17.6v212    c0.8,9.6,8,17.6,17.6,17.6h371.2c8.8,0,16.8-8,16.8-17.6v-212C406.4,168,399.2,160,389.6,160z M309.6,16.8h25.6v25.6h-25.6V16.8z     M308.8,112.8c3.2-0.8,5.6-4,5.6-8V58.4h16.8v46.4c0,3.2,2.4,6.4,5.6,8c12.8,4,20.8,12.8,20.8,21.6v26.4h-68.8v-26.4H288    C288,124.8,296,116,308.8,112.8z M186.4,16.8H212v25.6h-25.6V16.8z M185.6,112.8c3.2-0.8,5.6-4,5.6-8V58.4H208v46.4    c0,3.2,2.4,6.4,5.6,8c12.8,4,20.8,12.8,20.8,21.6v26.4h-68.8v-26.4h-0.8C164.8,124.8,172.8,116,185.6,112.8z M64,16.8h25.6v25.6    H64V16.8z M62.4,112.8c3.2-0.8,5.6-4,5.6-8V58.4h16.8v46.4c0,3.2,2.4,6.4,5.6,8c12.8,4,20.8,12.8,20.8,21.6v26.4H42.4v-26.4h-0.8    C41.6,124.8,49.6,116,62.4,112.8z M389.6,389.6c0,0.8,0,1.6-0.8,1.6H17.6c0,0-0.8-0.8-0.8-1.6v-212h0.8c0-0.8,0-1.6,0.8-1.6h16    h84.8h37.6h84.8h37.6H364h24.8c0,0,0.8,0.8,0.8,1.6V389.6z" data-original="#000000" class="active-path" data-old_color="#A87878" fill="#CE6F6F"/>
	</g>
</g><g>
	<g>
		<path d="M293.6,198.4h-51.2h-85.6h-42.4c-4.8,0-8,3.2-8,8v44.8c0,23.2,50.4,34.4,97.6,34.4s97.6-10.4,97.6-34.4v-44.8    C301.6,201.6,298.4,198.4,293.6,198.4z M148.8,263.2c-16.8-4-26.4-9.6-26.4-12.8v-36h26.4V263.2z M234.4,268    c-8.8,0.8-19.2,1.6-30.4,1.6c-15.2,0-28-0.8-39.2-2.4v-52h69.6V268z M285.6,251.2c0,3.2-12.8,10.4-35.2,14.4v-51.2h35.2V251.2z" data-original="#000000" class="active-path" data-old_color="#A87878" fill="#CE6F6F"/>
	</g>
</g><g>
	<g>
		<path d="M242.4,353.6H69.6c-4.8,0-8,3.2-8,8c0,4,3.2,8,8,8h172.8c4.8,0,8-3.2,8-8S247.2,353.6,242.4,353.6z" data-original="#000000" class="active-path" data-old_color="#A87878" fill="#CE6F6F"/>
	</g>
</g><g>
	<g>
		<path d="M338.4,353.6h-51.2c-4,0-8,3.2-8,8s3.2,8,8,8h51.2c4.8,0,8-3.2,8-8S343.2,353.6,338.4,353.6z" data-original="#000000" class="active-path" data-old_color="#A87878" fill="#CE6F6F"/>
	</g>
</g></g> </svg>
